<?xml version="1.0" standalone="no"?>
<!DOCTYPE svg PUBLIC "-//W3C//DTD SVG 20010904//EN"
 "http://www.w3.org/TR/2001/REC-SVG-20010904/DTD/svg10.dtd">
<svg version="1.0" xmlns="http://www.w3.org/2000/svg"
 width="150.000000pt" height="150.000000pt" viewBox="0 0 150.000000 150.000000"
 preserveAspectRatio="xMidYMid meet">
<metadata>
Created by potrace 1.14, written by Peter Selinger 2001-2017
</metadata>
<g transform="translate(0.000000,150.000000) scale(0.100000,-0.100000)"
fill="#000000" stroke="none">
<path d="M650 1483 c-292 -40 -543 -263 -617 -548 -24 -94 -26 -284 -2 -373
71 -275 289 -483 565 -538 71 -14 294 -9 350 8 246 77 422 240 500 465 12 35
21 63 19 63 -2 0 3 20 10 44 18 58 12 262 -9 339 -42 152 -150 309 -277 403
-79 58 -204 114 -289 129 -41 8 -214 13 -250 8z"/>
</g>
</svg>
